<svg xmlns="http://www.w3.org/2000/svg" width="286" height="254"><g fill="none" fill-rule="evenodd"><path d="M43.197 143.911c3.746-60.868 8.448-79.173 28.235-85.87 19.786-6.697 67.882-38.387 105.624-8.255 37.741 30.132 78.468 57.157 62.306 105.269-16.162 48.111-18.807 64.159-60.974 61.705-18.377-1.07-32.83-.914-44.955-.758-15.695.202-27.491.404-38.854-2.054-4.236-.916-55.128-9.169-51.382-70.037z" fill="#E1F0FC"/><path d="M166.79 123.476c-1.82 19.832-19.434 34.484-39.265 32.664-19.831-1.82-34.484-19.435-32.664-39.266 1.82-19.832 19.435-34.484 39.266-32.664 19.831 1.82 34.484 19.435 32.664 39.266m30.435 78.061a4.595 4.595 0 0 0 1.642-3.122 4.595 4.595 0 0 0-1.047-3.369l-34.855-41.9c7.592-7.39 12.694-17.408 13.736-28.76 2.322-25.296-16.369-47.765-41.665-50.087-25.296-2.322-47.765 16.369-50.087 41.665-2.322 25.296 16.369 47.765 41.665 50.087a45.808 45.808 0 0 0 26.893-5.799l2.18-1.441 35.047 42.13a4.609 4.609 0 0 0 6.49.596" fill="#EFEFEF"/><path d="M90.225 98.333c-1.85 3.912-3.492 7.955-4.653 12.128-1.072 3.856-1.424 7.779-1.261 11.772a46.008 46.008 0 0 0 6.318 21.387c7.64 12.973 21.38 21.554 36.394 22.699 9.462.721 19.819-1.388 27.808-6.671.405-.268-.558-.173-.745-.048-7.41 4.9-16.941 6.887-25.726 6.353a45.788 45.788 0 0 1-21.278-6.75c-12.202-7.56-20.387-20.727-21.662-35.035-.386-4.332-.218-8.724.861-12.948 1.15-4.502 2.916-8.856 4.899-13.05.08-.168-.833-.094-.955.163M156.2 160.141a981926.92 981926.92 0 0 0 32.385 38.93c.557.67 1.1 1.355 1.673 2.012 2.38 2.725 6.865 2.038 8.592-1.053.082-.146-.813-.09-.954.163-1.617 2.894-4.97 2.649-6.92.325-.622-.741-1.238-1.489-1.858-2.233l-7.765-9.335-19.574-23.531-4.67-5.614c-.159-.19-1.072.14-.908.336" fill="#C3E1F9"/><path d="M112.37 89.395c10.037-6.09 22.667-6.753 33.297-1.772 8.483 3.976 15.21 11.27 18.504 20.04 1.909 5.082 2.612 10.54 2.137 15.943-.013.151.94.044.966-.259.885-10.062-2.482-20.133-9.277-27.617-6.903-7.603-16.871-11.935-27.133-11.88-6.786.038-13.445 1.982-19.24 5.497-.41.249.555.164.746.048" fill="#6A79A8"/><path d="M169.238 120.02c-1.82 19.832-19.435 34.485-39.266 32.664-19.83-1.82-34.484-19.435-32.664-39.266 1.82-19.831 19.436-34.484 39.267-32.664 19.83 1.82 34.484 19.435 32.663 39.267m30.435 78.06a4.595 4.595 0 0 0 1.642-3.121 4.593 4.593 0 0 0-1.046-3.37l-34.856-41.9c7.592-7.39 12.695-17.408 13.737-28.76 2.322-25.296-16.37-47.765-41.665-50.087-25.296-2.322-47.766 16.369-50.088 41.665-2.322 25.296 16.37 47.765 41.665 50.087a45.809 45.809 0 0 0 26.894-5.799l2.18-1.441 35.046 42.131a4.609 4.609 0 0 0 6.49.596" fill="#FFF"/><path d="M200.072 198.203c2.112-1.88 2.252-4.844.485-7.005-.577-.705-1.165-1.4-1.748-2.101l-7.9-9.496-20.192-24.275-4.86-5.841-.045.326c7.522-7.37 12.424-17.14 13.685-27.609 1.098-9.115-.558-18.449-4.752-26.616-4.011-7.811-10.236-14.425-17.807-18.877-7.81-4.592-16.914-6.782-25.956-6.328-8.87.446-17.538 3.494-24.761 8.654-7.182 5.13-12.868 12.285-16.162 20.479-3.42 8.506-4.246 17.99-2.326 26.957 1.858 8.671 6.269 16.738 12.532 23.012 6.303 6.314 14.39 10.747 23.121 12.6 10.719 2.277 22.075.708 31.744-4.462 1.156-.618 2.226-1.349 3.319-2.071l-.758.01 13.473 16.196 19.3 23.2c.712.858 1.419 1.72 2.138 2.571 1.889 2.237 5.07 2.561 7.384.75.516-.404-.274-.666-.627-.39-2.063 1.615-4.485.894-6.035-.97l-2.006-2.41c-2.71-3.258-5.418-6.515-8.128-9.771l-19.88-23.899-4.73-5.687c-.18-.215-.565-.118-.758.01-16.046 10.611-37.7 9.328-52.704-2.55-13.977-11.067-20.355-29.71-16.078-47.017 4.234-17.13 18.528-30.645 35.883-33.868 17.696-3.287 36.018 4.569 46.072 19.433 4.879 7.212 7.648 15.796 7.85 24.505.234 10.118-2.912 20.195-8.949 28.328a47.224 47.224 0 0 1-4.881 5.577c-.085.083-.13.226-.046.327a853343.803 853343.803 0 0 1 31.77 38.19c.872 1.05 1.745 2.1 2.618 3.148.15.181.306.36.452.544 1.523 1.934 1.303 4.547-.535 6.183-.436.389.507.502.798.243" fill="#04273C"/><path d="M168.751 120.065c-1.41 14.743-11.974 27.47-26.346 31.277-14.51 3.843-30.175-2.204-38.574-14.578-8.4-12.373-8.141-29.198.717-41.268 8.867-12.081 24.734-17.407 39.077-12.99 13.992 4.306 24.175 17.212 25.196 31.802a36.571 36.571 0 0 1-.07 5.757c-.04.463.94.31.975-.089 1.339-15.233-7.2-30.056-21.147-36.41-13.814-6.293-30.489-3.21-41.22 7.493-10.912 10.884-13.796 28.013-6.916 41.831 6.802 13.664 21.78 21.8 36.954 20.032 14.86-1.73 27.575-12.685 31.329-27.19.49-1.89.814-3.814 1-5.756.044-.462-.937-.31-.975.09" fill="#6A79A8"/><path d="M133.557 152.489c-11.683 0-23.02-5.846-29.726-15.725-8.4-12.373-8.141-29.198.717-41.268l.255-.342a36.43 36.43 0 0 1 6.974-5.646c.214-.006.498-.056.593-.113 5.57-3.379 11.939-5.088 18.32-5.088a35.302 35.302 0 0 1 14.977 3.316c8.483 3.976 15.21 11.27 18.504 20.04 1.909 5.082 2.612 10.54 2.137 15.943-.004.046.081.068.203.068.078 0 .17-.009.264-.027a35.942 35.942 0 0 1-3.287 11.947c-4.709 7.585-12.162 13.385-21.083 15.748a34.542 34.542 0 0 1-8.848 1.147" fill="#FCFCFC"/><path d="M163.488 135.594a35.942 35.942 0 0 0 3.287-11.947c.24-.045.486-.148.499-.3.885-10.062-2.482-20.133-9.277-27.617-6.859-7.555-16.745-11.88-26.938-11.88h-.195c-6.786.038-13.445 1.982-19.24 5.497-.194.118-.079.161.117.161h.036a36.43 36.43 0 0 0-6.974 5.646c6.797-9.029 17.543-14.187 28.563-14.187 3.43 0 6.886.5 10.26 1.538 13.99 4.307 24.174 17.213 25.195 31.803a36.571 36.571 0 0 1-.07 5.757 35.965 35.965 0 0 1-5.263 15.529" fill="#F7F7F7"/><path d="M166.51 123.674c-.12 0-.206-.022-.202-.068.475-5.403-.228-10.861-2.137-15.944-3.293-8.77-10.02-16.063-18.504-20.039a35.302 35.302 0 0 0-14.976-3.316c-6.382 0-12.751 1.709-18.321 5.088-.095.057-.38.107-.593.113h-.036c-.196 0-.311-.043-.116-.161 5.794-3.515 12.453-5.46 19.239-5.496h.195c10.193 0 20.08 4.324 26.938 11.879 6.795 7.484 10.162 17.555 9.277 27.617-.013.152-.26.255-.5.3a1.458 1.458 0 0 1-.263.027" fill="#C3E1F9"/><path d="M133.3 152.837c-1.1 0-2.21-.05-3.328-.153-19.83-1.82-34.484-19.435-32.664-39.266 1.718-18.714 17.5-32.817 35.938-32.817 1.101 0 2.212.05 3.329.153 19.83 1.82 34.484 19.435 32.663 39.267-1.717 18.714-17.5 32.816-35.938 32.816m-28.497-57.683c-.086.113-.17.228-.255.342-8.858 12.07-9.116 28.895-.717 41.268 6.706 9.879 18.043 15.725 29.726 15.725 2.95 0 5.922-.373 8.848-1.147 8.92-2.363 16.374-8.163 21.083-15.748a35.965 35.965 0 0 0 5.263-15.529c.169-1.915.204-3.839.07-5.757-1.02-14.59-11.204-27.496-25.196-31.803a34.83 34.83 0 0 0-10.26-1.538c-11.019 0-21.765 5.158-28.562 14.187" fill="#B5BCD4"/><path d="M136.756 80.455c-15.071-1.325-29.888 6.908-36.484 20.581-6.674 13.837-3.715 30.793 7.203 41.581 10.871 10.743 27.794 13.517 41.564 6.91 13.743-6.595 22.191-21.361 20.654-36.569-1.52-15.038-12.69-27.883-27.338-31.555a37.818 37.818 0 0 0-5.6-.948c-.405-.04-1.012.537-.361.599 14.726 1.409 27.354 12.045 31.25 26.324 3.935 14.42-1.752 30.189-13.994 38.76-12.348 8.646-29.21 8.378-41.34-.544-11.963-8.797-17.345-24.492-13.302-38.778 4.025-14.221 16.904-24.798 31.667-25.83a36.33 36.33 0 0 1 5.719.068c.405.035 1.013-.542.362-.6" fill="#04273C"/><path d="M145.994 126.224c-1.981-2.416-5.006-4.194-7.956-5.095-4.96-1.514-10.433-.536-14.744 2.275-1.003.654-2.014 1.408-2.82 2.303-.398.443.532.535.797.24 1.908-2.12 4.764-3.592 7.476-4.321 4.908-1.321 10.043-.177 14.06 2.88.824.626 1.639 1.323 2.298 2.127.253.309 1.178-.057.889-.41M122.386 111.625a1.81 1.81 0 1 0-3.619-.018 1.81 1.81 0 0 0 3.619.018M147.205 111.76a1.81 1.81 0 1 0-3.618-.016 1.81 1.81 0 0 0 3.618.017" fill="#04273C"/><path d="M116.777 119.765c.021 1.93-1.136 3.509-2.583 3.524-1.448.016-2.64-1.536-2.66-3.467-.02-1.93 1.136-3.508 2.584-3.524 1.448-.015 2.638 1.537 2.66 3.467M154.357 119.359c.02 1.93-1.136 3.508-2.584 3.523-1.448.016-2.639-1.536-2.66-3.467-.02-1.93 1.136-3.508 2.584-3.524 1.448-.015 2.639 1.537 2.66 3.468" fill="#FFD9D8"/></g></svg>
