<svg xmlns="http://www.w3.org/2000/svg" xmlns:xlink="http://www.w3.org/1999/xlink" width="640" height="360" viewBox="0 0 169.333 95.25"><defs><linearGradient id="a"><stop offset="0" style="stop-color:#937b57;stop-opacity:1"/><stop offset="1" style="stop-color:#937b57;stop-opacity:0"/></linearGradient><linearGradient xlink:href="#a" id="b" x1="803.85" x2="805.8" y1="135.251" y2="951.339" gradientTransform="matrix(.61293 0 0 .5529 430.787 206.925)" gradientUnits="userSpaceOnUse"/></defs><path d="M577.126 367.647h718.896v404.379H577.126z" style="fill:url(#b);fill-opacity:1;stroke-width:.653904" transform="matrix(.23555 0 0 .23555 -135.94 -86.598)"/><path fill="#a7b8c6" d="M130.602 20.512h-28.547c0-.012.011-.023.011-.046H57.59c-.012.011-.035.023-.046.046h-11.87a5.74 5.74 0 0 0-5.732 5.733V83.49a5.74 5.74 0 0 0 5.733 5.732h2.63a1.57 1.57 0 0 0 .876 2.872h77.765a1.57 1.57 0 0 0 1.569-1.568c0-.542-.277-1.015-.692-1.304h2.791c3.149 0 5.733-2.583 5.733-5.732V26.245a5.75 5.75 0 0 0-5.745-5.733"/><path fill="#a7b8c6" d="M57.52 65.104c-.403 0-.807-.15-1.107-.461a1.566 1.566 0 0 1 0-2.215l54.985-54.985a1.566 1.566 0 0 1 2.214 2.215L58.628 64.643a1.56 1.56 0 0 1-1.108.461"/><path fill="#a7b8c6" d="M112.505 65.104c-.404 0-.807-.15-1.107-.461L56.413 9.647a1.566 1.566 0 0 1 2.215-2.215l54.984 54.996a1.566 1.566 0 0 1 0 2.215 1.55 1.55 0 0 1-1.107.461"/><path fill="#3e3a39" d="M53.691 61.286c-.404 0-.807-.15-1.107-.461a1.566 1.566 0 0 1 0-2.215l54.984-54.984a1.566 1.566 0 0 1 2.215 2.214L54.798 60.825a1.56 1.56 0 0 1-1.107.461"/><path fill="#3e3a39" d="M108.687 61.286c-.404 0-.807-.15-1.107-.461L52.595 5.829a1.566 1.566 0 0 1 2.215-2.215l54.984 54.985a1.566 1.566 0 0 1 0 2.214 1.51 1.51 0 0 1-1.107.473"/><path fill="#998d7b" d="M123.105 81.39H40.772a4.177 4.177 0 0 1-4.163-4.163V19.993a4.177 4.177 0 0 1 4.163-4.164h82.345a4.177 4.177 0 0 1 4.164 4.164v57.234c0 2.283-1.88 4.164-4.176 4.164"/><path fill="#c8bb9b" d="M123.105 82.256H40.772c-2.78 0-5.04-2.261-5.04-5.04V19.992c0-2.78 2.26-5.04 5.04-5.04h82.345c2.78 0 5.04 2.26 5.04 5.04v57.234c-.023 2.768-2.272 5.029-5.052 5.029M40.772 16.683a3.306 3.306 0 0 0-3.298 3.298v57.234a3.306 3.306 0 0 0 3.298 3.299h82.345a3.306 3.306 0 0 0 3.298-3.299V19.993a3.306 3.306 0 0 0-3.298-3.299H40.772Z"/><path fill="#3e3a39" d="M123.647 82.96H38.72a5.74 5.74 0 0 1-5.732-5.733V19.993a5.74 5.74 0 0 1 5.732-5.733h84.928a5.74 5.74 0 0 1 5.733 5.733v57.234a5.74 5.74 0 0 1-5.733 5.732M38.72 17.374a2.61 2.61 0 0 0-2.606 2.606v57.234a2.61 2.61 0 0 0 2.606 2.607h84.928a2.61 2.61 0 0 0 2.607-2.607V19.993a2.61 2.61 0 0 0-2.607-2.607z"/><path fill="#98805f" d="M92.435 75.462H41.718a4.177 4.177 0 0 1-4.164-4.164V26.59a4.177 4.177 0 0 1 4.164-4.164h50.706a4.177 4.177 0 0 1 4.163 4.164v44.707c.012 2.284-1.868 4.164-4.152 4.164"/><path fill="#b9ccd9" d="M91.881 71.448H42.78a1.39 1.39 0 0 1-1.384-1.384V27.133c0-.762.623-1.384 1.384-1.384h49.08c.76 0 1.383.622 1.383 1.384v42.93c.024.762-.6 1.385-1.36 1.385"/><path fill="#daddee" d="M44.106 71.448c8.697-5.121 18.49-13.092 27.798-23.08 7.059-7.579 12.93-15.353 17.313-22.608h-47.81v45.688z"/><path fill="#d8d8d8" d="M74.372 22.53H42.457a.517.517 0 0 1-.52-.519c0-.288.231-.519.52-.519H74.36c.288 0 .519.231.519.52 0 .288-.22.518-.508.518m17.313 53.255H66.54a.517.517 0 0 1-.519-.52c0-.288.231-.518.52-.518h25.144c.289 0 .52.23.52.519.01.277-.231.519-.52.519"/><path fill="#e8eaf5" d="M61.811 33.13C54.96 39.787 48.12 46.454 41.407 51.667v2.573c6.863-5.19 13.864-11.95 20.854-18.744 3.403-3.31 6.805-6.62 10.196-9.746h-2.952c-2.561 2.41-5.133 4.902-7.694 7.382m7.694-7.37h2.952"/><path fill="#3e3a39" d="M119.99 85.808H42.215a1.57 1.57 0 0 1-1.568-1.568 1.57 1.57 0 0 1 1.568-1.57h77.765a1.57 1.57 0 0 1 1.569 1.57 1.546 1.546 0 0 1-1.557 1.568"/><path fill="#98805f" d="M106.542 33.926a6.701 6.701 0 1 0 13.403 0 6.701 6.701 0 1 0-13.403 0"/><path fill="#d8d8d8" d="M88.421 70.537H51.12a.517.517 0 0 1-.52-.52c0-.288.231-.518.52-.518h37.314c.288 0 .519.23.519.519a.543.543 0 0 1-.53.519"/><path fill="#e1d8cc" d="M107.718 33.926a5.525 5.525 0 1 0 11.05 0 5.525 5.525 0 1 0-11.05 0"/><path fill="#40210f" d="M114.743 34.803h-2.988a.864.864 0 1 1 0-1.73h2.988a.864.864 0 1 1 0 1.73"/><path fill="#98805f" d="M106.542 51.932a6.701 6.701 0 1 0 13.403 0 6.701 6.701 0 1 0-13.403 0"/><path fill="#e1d8cc" d="M107.718 51.932a5.525 5.525 0 1 0 11.05 0 5.525 5.525 0 1 0-11.05 0"/><path fill="#40210f" d="M113.243 54.308a.864.864 0 0 1-.865-.865v-2.988a.864.864 0 1 1 1.73 0v2.988a.87.87 0 0 1-.865.865"/><path fill="#e1d8cc" d="M110.071 74.643h-3.345a.44.44 0 0 1-.438-.438v-1.177c0-.242.196-.438.438-.438h3.345c.242 0 .439.196.439.438v1.177a.44.44 0 0 1-.439.438m4.914 0h-3.345a.44.44 0 0 1-.438-.438v-1.177c0-.242.196-.438.438-.438h3.345c.242 0 .438.196.438.438v1.177a.44.44 0 0 1-.438.438m4.914 0h-3.345a.44.44 0 0 1-.439-.438v-1.177c0-.242.196-.438.439-.438h3.345c.242 0 .438.196.438.438v1.177a.44.44 0 0 1-.438.438M110.071 71.794h-3.345a.44.44 0 0 1-.438-.438v-1.177c0-.242.196-.438.438-.438h3.345c.242 0 .439.196.439.438v1.177a.44.44 0 0 1-.439.438m4.914 0h-3.345a.44.44 0 0 1-.438-.438v-1.177c0-.242.196-.438.438-.438h3.345c.242 0 .438.196.438.438v1.177a.44.44 0 0 1-.438.438m4.914 0h-3.345a.44.44 0 0 1-.439-.438v-1.177c0-.242.196-.438.439-.438h3.345c.242 0 .438.196.438.438v1.177a.44.44 0 0 1-.438.438"/></svg>