<?xml version="1.0" standalone="no"?>
<!DOCTYPE svg PUBLIC "-//W3C//DTD SVG 20010904//EN"
 "http://www.w3.org/TR/2001/REC-SVG-20010904/DTD/svg10.dtd">
<svg version="1.0" xmlns="http://www.w3.org/2000/svg"
 width="624.000000pt" height="624.000000pt" viewBox="0 0 624.000000 624.000000"
 preserveAspectRatio="xMidYMid meet">
<metadata>
Created by potrace 1.14, written by Peter Selinger 2001-2017
</metadata>
<g transform="translate(0.000000,624.000000) scale(0.100000,-0.100000)"
fill="#000000" stroke="none">
<path d="M2562 6223 c-32 -26 -30 -58 12 -148 54 -117 128 -344 151 -464 34
-179 38 -462 10 -591 -3 -14 -7 -42 -10 -62 -2 -21 -6 -41 -9 -46 -3 -5 -7
-19 -10 -33 -20 -107 -121 -379 -166 -449 -5 -8 -18 -31 -28 -50 -27 -53 -75
-134 -82 -140 -4 -3 -9 -12 -12 -20 -3 -8 -40 -62 -83 -120 -70 -96 -107 -143
-173 -219 -13 -14 -37 -43 -55 -65 -18 -21 -41 -48 -52 -60 -29 -30 -195 -245
-195 -252 0 -3 -6 -12 -12 -19 -66 -73 -265 -406 -337 -562 -8 -18 -19 -33
-23 -33 -5 0 -17 15 -28 33 -23 36 -129 250 -142 285 -4 12 -12 32 -17 45 -23
57 -42 111 -50 145 -5 20 -19 73 -30 117 -11 44 -22 91 -25 105 -3 14 -7 34
-9 45 -3 11 -8 45 -12 75 -4 30 -9 62 -10 70 -4 22 -14 125 -20 200 -4 53 -9
69 -29 86 -31 27 -69 21 -96 -15 -11 -14 -23 -30 -27 -36 -19 -24 -113 -174
-139 -220 -15 -27 -34 -58 -43 -69 -9 -10 -15 -20 -13 -22 1 -2 -16 -40 -38
-85 -76 -151 -158 -370 -190 -509 -6 -25 -12 -52 -14 -61 -5 -18 -15 -80 -21
-119 -23 -157 -23 -466 0 -641 6 -49 25 -171 30 -194 2 -11 7 -38 10 -60 6
-37 18 -86 47 -190 19 -71 87 -271 110 -326 76 -181 265 -514 348 -613 10 -12
46 -55 80 -96 304 -368 702 -640 1145 -783 148 -48 151 -48 179 -22 31 29 28
53 -19 138 -96 175 -148 409 -148 667 0 96 6 173 16 225 3 11 7 36 11 55 12
66 14 75 46 184 41 141 44 149 136 371 32 77 62 141 66 143 5 2 8 8 8 13 0 14
84 183 93 187 4 2 7 8 7 14 0 12 132 248 189 338 23 36 44 72 48 80 4 8 31 50
60 94 29 43 53 81 53 86 0 4 9 15 20 25 11 10 20 24 20 30 0 15 33 30 37 18 2
-5 33 -54 69 -108 36 -55 77 -120 92 -145 14 -25 29 -47 32 -50 3 -3 11 -16
18 -30 7 -14 23 -43 37 -65 14 -22 57 -98 96 -170 39 -71 75 -137 79 -145 78
-132 262 -573 286 -685 1 -5 7 -30 14 -55 7 -25 12 -46 12 -47 -1 -2 4 -17 9
-35 11 -38 16 -63 29 -150 9 -63 6 -346 -5 -403 -3 -16 -7 -46 -9 -65 -3 -19
-6 -36 -7 -37 -2 -4 -3 -7 -13 -58 -19 -94 -75 -239 -121 -315 -18 -29 -25
-70 -17 -101 3 -10 46 -26 62 -23 35 6 130 34 200 59 86 30 92 32 103 33 4 1
24 10 45 21 20 11 89 45 152 75 63 31 142 74 175 96 33 22 67 42 75 46 8 4 27
17 41 28 15 12 39 30 55 41 148 105 368 315 482 460 50 64 106 141 138 190 21
33 42 62 45 65 3 3 14 21 24 40 10 19 21 37 24 40 9 7 140 259 146 280 2 7 20
48 48 113 15 31 26 58 26 60 0 2 1 5 29 92 39 118 70 236 76 290 2 17 6 41 9
55 35 144 41 589 12 800 -2 14 -4 32 -4 41 -3 43 -75 74 -105 44 -13 -13 -97
-144 -133 -207 -6 -11 -21 -32 -32 -47 -12 -14 -51 -64 -88 -111 -110 -140
-322 -340 -361 -340 -5 0 -12 -5 -14 -12 -2 -6 -9 -9 -14 -5 -6 3 -12 52 -13
109 -2 57 -4 123 -6 148 -5 66 -17 212 -20 235 -9 73 -18 142 -21 157 -1 9 -6
38 -10 65 -3 26 -9 57 -11 68 -3 11 -6 29 -8 40 -26 149 -102 443 -152 580
-13 39 -26 77 -28 86 -4 18 -100 255 -139 342 -14 31 -25 60 -25 63 0 4 -3 10
-8 13 -4 3 -29 49 -55 101 -86 174 -247 444 -330 555 -5 6 -45 60 -89 120 -69
93 -138 179 -244 304 -114 134 -355 372 -529 522 -22 19 -50 44 -63 57 -13 12
-26 22 -28 22 -5 0 -48 35 -77 63 -10 9 -21 17 -26 17 -4 0 -18 10 -32 23 -14
12 -43 36 -65 52 -22 17 -42 32 -45 36 -19 21 -287 191 -309 195 -18 4 -34 -1
-49 -13z"/>
</g>
</svg>
